<svg width="68" height="68" viewBox="0 0 68 68" fill="none" xmlns="http://www.w3.org/2000/svg">
<g clip-path="url(#clip0_18_109)">
<path d="M20.3647 47.5176C27.8636 55.0164 40.0187 55.0164 47.5176 47.5176C55.0165 40.0187 55.0165 27.8635 47.5176 20.3647C40.0187 12.8658 27.8636 12.8658 20.3647 20.3647C12.8658 27.8635 12.8658 40.0187 20.3647 47.5176ZM41.2597 28.4257L41.2597 36.911C41.2597 37.908 40.4536 38.7141 39.4619 38.7088C38.4702 38.7035 37.6588 37.9027 37.6641 36.911V32.7744L29.7038 40.7346C28.9985 41.44 27.8636 41.44 27.1582 40.7346C26.4529 40.0293 26.4529 38.8944 27.1582 38.1891L35.1185 30.2288L30.9819 30.2288C29.9849 30.2288 29.1788 29.4227 29.1841 28.431C29.1894 27.4393 29.9902 26.6279 30.9819 26.6332L39.4672 26.6332C40.4642 26.6332 41.2703 27.4393 41.265 28.431L41.2597 28.4257Z" fill="#4E3D18"/>
</g>
<defs>
<clipPath id="clip0_18_109">
<rect width="48" height="48" fill="white" transform="translate(33.9412) rotate(45)"/>
</clipPath>
</defs>
</svg>
