<svg width="32" height="32" viewBox="0 0 32 32" fill="none" xmlns="http://www.w3.org/2000/svg">
<path d="M25.23 7.42499C25.795 6.74499 25.705 5.73499 25.025 5.16999C24.345 4.60499 23.335 4.69499 22.77 5.37499L16 13.5L9.22996 5.37499C8.66496 4.69499 7.65496 4.60499 6.97496 5.16999C6.29496 5.73499 6.20496 6.74499 6.76996 7.42499L13.915 16L6.76996 24.575C6.20496 25.255 6.29496 26.265 6.97496 26.83C7.65496 27.395 8.66496 27.305 9.22996 26.625L16 18.5L22.77 26.625C23.335 27.305 24.345 27.395 25.025 26.83C25.705 26.265 25.795 25.255 25.23 24.575L18.085 16L25.23 7.42499Z" fill="#8A8A8A"/>
</svg>
