<svg width="102" height="102" viewBox="0 0 102 102" fill="none" xmlns="http://www.w3.org/2000/svg">
<g clip-path="url(#clip0_89_65)">
<path d="M30.547 71.2764C41.7953 82.5247 60.0281 82.5247 71.2764 71.2764C82.5247 60.0281 82.5247 41.7953 71.2764 30.547C60.0281 19.2987 41.7953 19.2987 30.547 30.547C19.2987 41.7953 19.2987 60.0281 30.547 71.2764ZM61.8895 42.6386V55.3665C61.8895 56.862 60.6804 58.0712 59.1928 58.0632C57.7052 58.0553 56.4881 56.8541 56.4961 55.3665V49.1616L44.5557 61.102C43.4977 62.16 41.7953 62.16 40.7373 61.102C39.6793 60.044 39.6793 58.3416 40.7373 57.2836L52.6777 45.3433H46.4728C44.9773 45.3433 43.7681 44.1341 43.7761 42.6465C43.7841 41.159 44.9852 39.9418 46.4728 39.9498L59.2007 39.9498C60.6963 39.9498 61.9054 41.159 61.8975 42.6465L61.8895 42.6386Z" fill="#E1CC9D"/>
</g>
<defs>
<clipPath id="clip0_89_65">
<rect width="72" height="72" fill="white" transform="translate(50.9117) rotate(45)"/>
</clipPath>
</defs>
</svg>
